<svg width="100" height="30" viewBox="0 0 100 30" fill="none" xmlns="http://www.w3.org/2000/svg">
<path d="M15.7763 6.49907L17.0909 5.1993L18.4057 6.49907L15.7763 9.09884L18.4057 11.6984L23.6645 6.49907L17.0909 0L13.147 3.89954L15.7763 6.49907Z" fill="#058F1A"/>
<path d="M6.57338 0L3.94412 2.59954L19.7728 18.2495L13.147 24.8007L6.52093 18.2495L9.20287 15.5979L11.8321 18.1977L10.4648 19.5493L13.147 22.2009L17.1436 18.2495L2.62949 3.89954L0 6.49907L6.57338 12.9984L1.26217 18.2495L13.147 30L25.0316 18.2495L18.4057 11.6984L15.7763 9.09884L6.57338 0Z" fill="#058F1A"/>
<path d="M42.9822 0.952545H47.0439V13.1235H42.9822V8.71859H38.2019V13.1235H34.1401V0.952545H38.2019V5.3572H42.9822V0.952545Z" fill="#0F1C2A"/>
<path d="M58.1939 13.1235L57.6515 11.5151H52.3725L51.8301 13.1235H47.6362L52.1672 0.952545H57.8569L62.3878 13.1235H58.1939ZM53.3696 8.54487H56.6544L55.364 4.71975H54.66L53.3696 8.54487Z" fill="#0F1C2A"/>
<path d="M62.9745 13.1235V0.952545H67.0364V9.7765H73.6056V13.1235H62.9745Z" fill="#0F1C2A"/>
<path d="M84.5883 13.1235L84.0459 11.5151H78.767L78.2243 13.1235H74.0306L78.5616 0.952545H84.251L88.7823 13.1235H84.5883ZM79.764 8.54487H83.0488L81.7584 4.71975H81.0544L79.764 8.54487Z" fill="#0F1C2A"/>
<path d="M89.3689 13.1235V0.952545H93.4309V9.7765H100V13.1235H89.3689Z" fill="#0F1C2A"/>
<path d="M34.1401 29.0616V16.8907H45.2111V20.2377H38.2019V21.8893H44.9032V24.7872H38.2019V29.0616H34.1401Z" fill="#0F1C2A"/>
<path d="M54.74 29.0616L54.1976 27.4533H48.9186L48.376 29.0616H44.1823L48.7133 16.8907H54.4027L58.9339 29.0616H54.74ZM49.9157 24.483H53.2003L51.9101 20.6579H51.2061L49.9157 24.483Z" fill="#0F1C2A"/>
<path d="M72.322 29.0616H68.3334L66.6617 25.9174H63.5825V29.0616H59.5205V16.8907H66.5738C70.1321 16.8907 71.9113 18.4409 71.9113 21.5416C71.9113 23.0581 71.315 24.2319 70.1223 25.0626L72.322 29.0616ZM63.5825 20.2232V22.9181H66.2953C66.8036 22.9181 67.1896 22.8023 67.4535 22.5705C67.7176 22.3386 67.8496 22.0053 67.8496 21.5707C67.8496 21.136 67.7176 20.8028 67.4535 20.5709C67.1896 20.3391 66.8036 20.2232 66.2953 20.2232H63.5825Z" fill="#0F1C2A"/>
<path d="M73.1302 29.0616V16.8907H78.2478L80.2568 23.8309H80.5499L82.5589 16.8907H87.6765V29.0616H83.8053V23.6716H83.4826L81.9137 29.0616H78.893L77.3239 23.6716H77.0014V29.0616H73.1302Z" fill="#0F1C2A"/>
</svg>
