<svg width="126" height="39" viewBox="0 0 126 39" fill="none" xmlns="http://www.w3.org/2000/svg">
<path d="M19.8781 8.28758L21.5345 6.63012L23.1912 8.28758L19.8781 11.6028L23.1912 14.9177L29.8173 8.28758L21.5345 0L16.5652 4.97266L19.8781 8.28758Z" fill="#FFC61A"/>
<path d="M8.28246 0L4.96959 3.31491L24.9138 23.2717L16.5652 31.6257L8.21637 23.2717L11.5956 19.8904L14.9085 23.2056L13.1857 24.9292L16.5652 28.3105L21.6009 23.2717L3.31316 4.97266L0 8.28758L8.28246 16.5754L1.59034 23.2717L16.5652 38.2558L31.5398 23.2717L23.1912 14.9177L19.8781 11.6028L8.28246 0Z" fill="#FFC61A"/>
<path d="M54.1576 1.21469H59.2753V16.735H54.1576V11.1179H48.1344V16.735H43.0166V1.21469H48.1344V6.83148H54.1576V1.21469Z" fill="white"/>
<path d="M73.3243 16.735L72.6409 14.684H65.9894L65.306 16.735H60.0216L65.7307 1.21469H72.8996L78.6087 16.735H73.3243ZM67.2457 10.8964H71.3846L69.7587 6.01861H68.8716L67.2457 10.8964Z" fill="white"/>
<path d="M79.3478 16.735V1.21469H84.4659V12.4669H92.743V16.735H79.3478Z" fill="white"/>
<path d="M106.581 16.735L105.898 14.684H99.2464L98.5626 16.735H93.2786L98.9876 1.21469H106.156L111.866 16.735H106.581ZM100.503 10.8964H104.642L103.016 6.01861H102.129L100.503 10.8964Z" fill="white"/>
<path d="M112.605 16.735V1.21469H117.723V12.4669H126V16.735H112.605Z" fill="white"/>
<path d="M43.0166 37.0592V21.5389H56.966V25.807H48.1344V27.9131H56.578V31.6085H48.1344V37.0592H43.0166Z" fill="white"/>
<path d="M68.9724 37.0592L68.2889 35.0082H61.6374L60.9537 37.0592H55.6696L61.3787 21.5389H68.5474L74.2567 37.0592H68.9724ZM62.8938 31.2206H67.0323L65.4067 26.3428H64.5197L62.8938 31.2206Z" fill="white"/>
<path d="M91.1257 37.0592H86.1001L83.9938 33.0498H80.114V37.0592H74.9959V21.5389H83.8829C88.3665 21.5389 90.6083 23.5158 90.6083 27.4698C90.6083 29.4036 89.857 30.9003 88.354 31.9596L91.1257 37.0592ZM80.114 25.7886V29.2251H83.532C84.1725 29.2251 84.6588 29.0774 84.9914 28.7817C85.3242 28.4861 85.4905 28.0611 85.4905 27.5068C85.4905 26.9526 85.3242 26.5276 84.9914 26.2319C84.6588 25.9363 84.1725 25.7886 83.532 25.7886H80.114Z" fill="white"/>
<path d="M92.1441 37.0592V21.5389H98.5923L101.124 30.3891H101.493L104.024 21.5389H110.472V37.0592H105.595V30.1859H105.188L103.211 37.0592H99.4052L97.4281 30.1859H97.0218V37.0592H92.1441Z" fill="white"/>
</svg>
